<?xml version="1.0" encoding="UTF-8" standalone="no"?>
<svg width="14px" height="8px" viewBox="0 0 14 8" version="1.1" xmlns="http://www.w3.org/2000/svg" xmlns:xlink="http://www.w3.org/1999/xlink">
    <!-- Generator: Sketch 39.1 (31720) - http://www.bohemiancoding.com/sketch -->
    <title>settings</title>
    <desc>Created with Sketch.</desc>
    <defs>
        <polygon id="path-1" points="7.385112 7.46666667 0 7.46666667 0 0.433226667 7.385112 0.433226667"></polygon>
    </defs>
    <g id="Page-1" stroke="none" stroke-width="1" fill="none" fill-rule="evenodd">
        <g id="settings">
            <g id="Group-3" transform="translate(0.000000, 0.100160)">
                <mask id="mask-2" fill="white">
                    <use xlink:href="#path-1"></use>
                </mask>
                <g id="Clip-2"></g>
                <path d="M3.684632,2.69456 C2.965032,2.69989333 2.369192,3.27376 2.374232,3.95642667 C2.379832,4.64176 2.983512,5.20976 3.699192,5.20442667 C4.418792,5.19909333 5.015752,4.62416 5.009592,3.94256 C5.003992,3.25722667 4.400872,2.68922667 3.684632,2.69456 M4.283272,7.46682667 L3.101672,7.46682667 C2.883832,7.21296 2.807672,6.92229333 2.849672,6.59962667 C2.873752,6.41349333 2.703512,6.40976 2.590392,6.35589333 C2.489592,6.30789333 2.390472,6.26682667 2.293032,6.37562667 C2.201192,6.47802667 2.098712,6.57189333 1.995672,6.66416 C1.806952,6.83322667 1.534232,6.83002667 1.356712,6.66096 C1.156232,6.47056 0.950712,6.28442667 0.759752,6.08656 C0.713272,6.03802667 0.692552,5.94789333 0.695912,5.87856 C0.709352,5.59909333 0.957992,5.46949333 1.133832,5.29829333 C1.230712,5.20389333 1.234632,5.12016 1.175272,5.01669333 C1.109192,4.90202667 1.108632,4.72229333 0.894152,4.75216 C0.557592,4.80016 0.266392,4.69882667 -0.000168,4.51269333 L-0.000168,3.35216 C0.257992,3.16602667 0.551992,3.11536 0.866712,3.14682667 C0.885192,3.14896 0.903672,3.14629333 0.922152,3.14736 C1.117592,3.16016 1.110312,2.99322667 1.169672,2.88922667 C1.220072,2.80016 1.255912,2.70949333 1.149512,2.62149333 C1.038072,2.52976 0.935592,2.42789333 0.833112,2.32709333 C0.699832,2.19482667 0.648872,1.91589333 0.741832,1.82576 C0.983192,1.59216 1.226232,1.35962667 1.472072,1.13082667 C1.507352,1.09829333 1.575112,1.05936 1.609272,1.07109333 C1.743672,1.11749333 1.881432,1.16869333 1.996792,1.24656 C2.110472,1.32282667 2.204552,1.42896 2.297512,1.52976 C2.389912,1.63056 2.485672,1.59589333 2.579192,1.54789333 C2.688392,1.49136 2.867592,1.49722667 2.848552,1.31162667 C2.815512,0.994293333 2.866472,0.69776 3.064712,0.433226667 L4.320232,0.433226667 C4.512312,0.69296 4.572232,0.983093333 4.534712,1.29456 C4.511192,1.49029333 4.690392,1.48869333 4.805752,1.54842667 C4.910472,1.60229333 5.006792,1.61989333 5.100872,1.51536 C5.204472,1.40016 5.319832,1.29349333 5.435752,1.18896 C5.565112,1.07269333 5.819912,1.04336 5.913992,1.13136 C6.158712,1.36176 6.403992,1.59162667 6.641992,1.82842667 C6.678952,1.86469333 6.691832,1.93722667 6.689032,1.99216 C6.675592,2.27536 6.445992,2.42629333 6.256712,2.59536 C6.149192,2.69242667 6.151992,2.78149333 6.212472,2.89136 C6.276872,3.00922667 6.286952,3.17402667 6.499752,3.14842667 C6.820072,3.11056 7.121352,3.16229333 7.385112,3.35216 L7.385112,4.51269333 C7.113512,4.70522667 6.813352,4.79429333 6.472312,4.75322667 C6.266232,4.72869333 6.274632,4.90896 6.211352,5.01722667 C6.157032,5.11002667 6.137992,5.19856 6.241032,5.28389333 C6.357512,5.37936 6.465032,5.48496 6.570312,5.59162667 C6.738872,5.76229333 6.733272,5.98789333 6.562472,6.15109333 C6.362552,6.34202667 6.158152,6.52869333 5.964952,6.72549333 C5.885992,6.80549333 5.812072,6.80656 5.705672,6.79269333 C5.441352,6.75802667 5.291832,6.57616 5.132232,6.41029333 C5.033672,6.30842667 4.942392,6.28229333 4.809672,6.34576 C4.669672,6.41242667 4.494952,6.43589333 4.533032,6.65189333 C4.587912,6.95962667 4.478152,7.22629333 4.283272,7.46682667" id="Fill-1" fill="#000000" mask="url(#mask-2)"></path>
            </g>
            <path d="M7.847336,4.29914667 C8.407336,4.10714667 8.309896,3.91408 8.512056,3.72261333 C8.661016,3.58181333 8.784776,3.58341333 8.936536,3.72741333 C9.220456,3.99674667 9.518936,4.26714667 9.802856,4.53648 L9.924376,4.63888 L10.050376,4.52794667 C10.943576,3.67781333 11.837896,2.82768 12.731096,1.97754667 C12.910296,1.80741333 12.989816,1.80741333 13.168456,1.97701333 C13.331976,2.13221333 13.496616,2.28634667 13.657336,2.44314667 C13.782776,2.56581333 13.785016,2.65594667 13.658456,2.77594667 C12.483016,3.89701333 11.307016,5.01754667 10.129336,6.13648 C9.969176,6.28794667 9.890776,6.28688 9.736776,6.14074667 C9.175656,5.60901333 8.554056,5.07514667 7.994616,4.54181333 L7.847336,4.44261333 L7.847336,4.29914667 Z" id="Fill-4" fill="#000000"></path>
        </g>
    </g>
</svg>